<?xml version="1.0" encoding="UTF-8"?>
<svg data-bbox="0.017 0 511.966 512" width="512" viewBox="0 0 512 512" height="512" xmlns="http://www.w3.org/2000/svg" data-type="shape">
    <g>
        <path d="M244.429 351.293c-20.842 19.753-37.473 44.295-48.094 70.972l-5.559 13.961C177.285 470.107 145.004 492 108.536 492c-48.809 0-88.519-39.709-88.519-88.519v-201.73C20.017 101.533 101.55 20 201.769 20c89.464 0 162.249 72.785 162.249 162.249 0 42.893-17.446 84.836-47.865 115.075-3.917 3.894-3.936 10.226-.042 14.142 3.893 3.918 10.224 3.936 14.142.042 17.012-16.912 30.341-36.712 39.617-58.852 9.388-22.406 14.147-46.095 14.147-70.407C384.017 81.756 302.261 0 201.768 0 90.522 0 .017 90.505.017 201.751v201.73C.017 463.318 48.698 512 108.536 512c21.803 0 42.865-6.469 60.91-18.706 18.044-12.238 31.846-29.413 39.911-49.67l5.559-13.961c9.557-24.002 24.52-46.082 43.271-63.854 4.009-3.799 4.178-10.128.379-14.137-3.8-4.011-10.13-4.179-14.137-.379z"/>
        <path d="M110.017 372.31c59.637 0 108.155-48.518 108.155-108.154 0-5.522-4.477-10-10-10s-10 4.478-10 10c0 48.608-39.546 88.154-88.155 88.154l-.414-.001h-.063c-5.494 0-9.964 4.437-9.999 9.938-.034 5.522 4.416 10.027 9.938 10.062z"/>
        <path d="M318.017 200.469c5.523 0 10-4.477 10-10C328.017 116.322 267.695 56 193.549 56c-75.835 0-137.532 61.696-137.532 137.612 0 15.124 10.344 28.427 25.155 32.35 25.815 6.838 43.845 30.293 43.845 57.038 0 5.522 4.477 10 10 10s10-4.478 10-10c0-35.807-24.148-67.212-58.724-76.371-6.051-1.603-10.276-6.956-10.276-13.098C76.017 128.724 128.742 76 193.549 76c63.118 0 114.468 51.351 114.468 114.469 0 5.523 4.477 10 10 10z"/>
        <path d="M192.796 118.657c-24.132 0-46.934 11.77-60.993 31.484-3.207 4.496-2.161 10.741 2.335 13.948s10.741 2.162 13.948-2.335c10.314-14.462 27.028-23.097 44.71-23.097 29.399 0 53.316 23.917 53.316 53.316 0 5.523 4.477 10 10 10s10-4.477 10-10c.001-40.427-32.889-73.316-73.316-73.316z"/>
        <path d="M294.487 338.76c1.86-1.86 2.93-4.43 2.93-7.07 0-2.63-1.07-5.21-2.93-7.069-1.86-1.86-4.44-2.931-7.07-2.931s-5.21 1.07-7.07 2.931a10.072 10.072 0 0 0-2.93 7.069c0 2.641 1.07 5.21 2.93 7.07 1.86 1.87 4.44 2.93 7.07 2.93s5.21-1.06 7.07-2.93z"/>
        <path d="M94.087 432.069c1.86-1.859 2.93-4.439 2.93-7.069s-1.07-5.21-2.93-7.07-4.44-2.93-7.07-2.93-5.21 1.069-7.07 2.93c-1.86 1.86-2.93 4.44-2.93 7.07s1.07 5.21 2.93 7.069c1.86 1.86 4.44 2.931 7.07 2.931s5.21-1.07 7.07-2.931z"/>
        <path d="M500.073 266.007a31.803 31.803 0 0 0 3.743-14.997c0-17.645-14.355-32-32-32s-32 14.355-32 32 14.355 32 32 32a31.8 31.8 0 0 0 13.632-3.057c10.2 15.514 8.486 36.62-5.147 50.252s-34.739 15.347-50.253 5.147a31.804 31.804 0 0 0 3.057-13.632c0-17.645-14.355-32-32-32s-32 14.355-32 32 14.355 32 32 32a31.796 31.796 0 0 0 14.986-3.737c10.316 7.744 22.797 11.938 35.926 11.938 16.026 0 31.094-6.241 42.427-17.573 21.331-21.332 23.201-54.858 5.629-78.341zm-110.967 55.714c0-6.617 5.383-12 12-12s12 5.383 12 12-5.383 12-12 12-12-5.383-12-12zm70.71-70.711c0-6.617 5.383-12 12-12s12 5.383 12 12-5.383 12-12 12-12-5.383-12-12z"/>
        <path d="M424.478 449.404C420.294 420.379 395.268 398 365.103 398s-55.191 22.379-59.375 51.404c-13.085 4.017-22.625 16.213-22.625 30.596 0 17.645 14.355 32 32 32s32-14.355 32-32c0-13.845-8.841-25.662-21.172-30.111C329.69 431.709 345.825 418 365.103 418s35.413 13.709 39.172 31.889c-12.332 4.448-21.172 16.265-21.172 30.111 0 17.645 14.355 32 32 32s32-14.355 32-32c0-14.384-9.54-26.579-22.625-30.596zM315.103 492c-6.617 0-12-5.383-12-12s5.383-12 12-12 12 5.383 12 12-5.383 12-12 12zm100 0c-6.617 0-12-5.383-12-12s5.383-12 12-12 12 5.383 12 12-5.383 12-12 12z"/>
    </g>
</svg>
