<?xml version="1.0" encoding="UTF-8"?>
<svg data-bbox="1 1 62 62" width="512" viewBox="0 0 64 64" height="512" xmlns="http://www.w3.org/2000/svg" data-type="shape">
    <g>
        <path d="m24.707 21.707-1.414-1.414-.293.292c-.535.535-1.465.535-2 0l-.293-.293-1.414 1.414.293.294c.646.645 1.503 1 2.414 1s1.769-.355 2.414-1z"/>
        <path d="m32.707 21.707-1.414-1.414-.293.292c-.535.535-1.465.535-2 0l-.293-.293-1.414 1.414.293.294c.646.645 1.503 1 2.414 1s1.769-.355 2.414-1z"/>
        <path d="M28 27.764c-.381.762-1.147 1.236-2 1.236s-1.619-.474-2-1.236l-.105-.211-1.789.895.105.21C22.933 30.103 24.385 31 26 31s3.067-.897 3.789-2.342l.105-.211-1.789-.895z"/>
        <path d="M9 57h8v2H9z"/>
        <path d="M19 57h4v2h-4z"/>
        <path d="M27 55h14v2H27z"/>
        <path d="M61 17h-4c-1.103 0-2 .897-2 2h-2c-1.103 0-2 .897-2 2v2h-2c-1.103 0-2 .897-2 2h-6v-9c0-8.271-6.729-15-15-15S11 7.729 11 16v24.506c-2.569 1.052-4.615 3.174-5.507 5.851A9.614 9.614 0 0 0 5 49.399v4.122C2.559 55.541 1 58.592 1 62v1h50v-1c0-3.408-1.559-6.459-4-8.479v-4.122c0-1.036-.166-2.06-.494-3.043-.891-2.676-2.937-4.798-5.506-5.851V27h6c0 1.103.897 2 2 2h2v2c0 1.103.897 2 2 2h2c0 1.103.897 2 2 2h4c1.103 0 2-.897 2-2V19c0-1.103-.897-2-2-2zM26 3c7.168 0 13 5.832 13 13v9h-2.069c.03-.333.069-.664.069-1v-6.848l-1.256-.208a16.567 16.567 0 0 1-9.037-4.651L26 11.586l-.707.707a16.567 16.567 0 0 1-9.037 4.651L15 17.152V24c0 4.576 2.81 8.505 6.793 10.16l-.443 2.662a1.99 1.99 0 0 1-1.555 1.627L13 39.905V16c0-7.168 5.832-13 13-13zm0 30c-4.963 0-9-4.038-9-9v-5.158a18.517 18.517 0 0 0 9-4.463 18.517 18.517 0 0 0 9 4.463v4.342A2.966 2.966 0 0 0 34 23c-1.654 0-3 1.346-3 3a2.998 2.998 0 0 0 2.487 2.948C31.843 31.423 29.053 33 26 33zm9-7a1.001 1.001 0 0 1-2 0 1.001 1.001 0 0 1 2 0zm13.944 35H3.056c.499-4.494 4.319-8 8.944-8h28c4.625 0 8.445 3.506 8.944 8zm-4.336-14.012c.26.779.392 1.59.392 2.411v2.815A10.928 10.928 0 0 0 40 51h-1v-4h-2v4H27v-2h-2v2H15v-4h-2v4h-1c-1.801 0-3.498.444-5 1.214v-2.815c0-.821.132-1.632.391-2.411a7.656 7.656 0 0 1 5.636-5.042l7.188-1.541a3.979 3.979 0 0 0 3.107-3.254l.398-2.392A10.99 10.99 0 0 0 26 35c.776 0 1.538-.089 2.279-.247l.4 2.399a3.977 3.977 0 0 0 3.106 3.254l7.188 1.54a7.65 7.65 0 0 1 5.635 5.042zM39 39.905l-6.795-1.455a1.989 1.989 0 0 1-1.554-1.627l-.445-2.668a11.027 11.027 0 0 0 6.059-6.211c.238-.277.425-.594.55-.944H39zM49 27v-2h2v2zm4 4V21h2v10zm8 2h-4V19h4z"/>
    </g>
</svg>
