<?xml version="1.0" encoding="UTF-8"?>
<svg data-bbox="0 0.001 512 512" viewBox="0 0 512.001 512.001" xmlns="http://www.w3.org/2000/svg" data-type="shape">
    <g>
        <path d="M510.95 4.101a8.084 8.084 0 0 0-11.019-3.05L435.26 37.677a8.085 8.085 0 0 0-4.1 7.034v59.524h-10.463v-5.928c0-11.589-9.429-21.019-21.019-21.019-11.589 0-21.019 9.429-21.019 21.019v28.025c0 11.59 9.429 21.019 21.019 21.019 11.59 0 21.019-9.429 21.019-21.019v-5.928h10.463v21.315c-10.835.831-19.402 9.893-19.402 20.937v185.398c0 9.896 6.883 18.195 16.108 20.415-1.25 26.622-23.299 47.898-50.228 47.898h-44.896V144.149c0-11.589-9.429-21.019-21.019-21.019h-71.79v-12.113c0-11.589-9.429-21.019-21.019-21.019H113.827c-11.589 0-21.019 9.429-21.019 21.019v12.113H21.019C9.429 123.13 0 132.559 0 144.149v320.74c0 11.283 8.944 20.493 20.111 20.973v5.12c0 11.59 9.429 21.019 21.019 21.019h42.033c11.59 0 21.019-9.429 21.019-21.019v-5.074h10.615c4.466 0 8.084-3.619 8.084-8.084s-3.618-8.084-8.084-8.084H21.019a4.857 4.857 0 0 1-4.851-4.851V236.927h208.574c4.466 0 8.084-3.619 8.084-8.084s-3.618-8.084-8.084-8.084H16.169v-76.61a4.855 4.855 0 0 1 4.851-4.85h290.702a4.855 4.855 0 0 1 4.85 4.85v76.61H251.69c-4.466 0-8.084 3.618-8.084 8.084s3.619 8.084 8.084 8.084h64.882v179.44h-29.947c-3.496-11.824-14.449-20.48-27.391-20.48-15.75 0-28.564 12.814-28.564 28.564s12.814 28.564 28.564 28.564c12.943 0 23.896-8.656 27.391-20.48h29.947v32.354a4.857 4.857 0 0 1-4.85 4.851H140.668a8.082 8.082 0 0 0-8.084 8.084 8.082 8.082 0 0 0 8.084 8.084h87.89v5.074c0 11.59 9.429 21.019 21.019 21.019h42.034c11.59 0 21.019-9.429 21.019-21.019v-5.12c11.167-.481 20.111-9.69 20.111-20.973v-32.354h44.896c35.833 0 65.117-28.51 66.395-64.034 9.286-2.176 16.23-10.507 16.23-20.448V235.762c0-4.466-3.618-8.084-8.084-8.084s-8.084 3.618-8.084 8.084v52.023h-16.168v-125.13a4.856 4.856 0 0 1 4.85-4.851h6.467a4.855 4.855 0 0 1 4.85 4.851v47.238c0 4.466 3.619 8.084 8.084 8.084s8.084-3.618 8.084-8.084v-47.238c0-8.726-5.347-16.223-12.935-19.398v-22.856h4.851c4.466 0 8.084-3.618 8.084-8.084s-3.618-8.084-8.084-8.084h-4.851V49.424l60.571-34.303a8.085 8.085 0 0 0 3.053-11.02zM404.528 126.332c0 2.674-2.176 4.851-4.851 4.851s-4.851-2.176-4.851-4.851V98.307c0-2.675 2.176-4.851 4.851-4.851s4.851 2.175 4.851 4.851v28.025zM36.28 485.908h51.734v5.074a4.857 4.857 0 0 1-4.851 4.851H41.131a4.857 4.857 0 0 1-4.851-4.851v-5.074zm187.485-367.435H108.978v-7.457a4.856 4.856 0 0 1 4.851-4.851h105.086a4.856 4.856 0 0 1 4.851 4.851v7.457zm35.469 314.063h9.375c-2.274 2.634-5.63 4.312-9.375 4.312-6.835 0-12.396-5.561-12.396-12.396 0-6.835 5.561-12.396 12.396-12.396 3.746 0 7.101 1.677 9.375 4.312h-9.375a8.082 8.082 0 0 0-8.084 8.084 8.082 8.082 0 0 0 8.084 8.084zm37.227 58.445a4.857 4.857 0 0 1-4.851 4.851h-42.033a4.857 4.857 0 0 1-4.851-4.851v-5.074h51.734v5.074zm131.465-187.026h16.168v44.099a4.857 4.857 0 0 1-4.851 4.851h-6.467a4.857 4.857 0 0 1-4.851-4.851v-44.099z"/>
        <path d="M275.941 180.292c0-15.75-12.814-28.564-28.564-28.564s-28.564 12.814-28.564 28.564 12.814 28.564 28.564 28.564 28.564-12.814 28.564-28.564zm-40.96 0c0-6.835 5.561-12.396 12.396-12.396 6.835 0 12.396 5.561 12.396 12.396 0 6.835-5.561 12.396-12.396 12.396-6.835-.001-12.396-5.561-12.396-12.396z"/>
        <path d="M137.244 180.292c0 15.75 12.814 28.564 28.564 28.564s28.564-12.814 28.564-28.564-12.814-28.564-28.564-28.564-28.564 12.813-28.564 28.564zm40.96 0c0 6.835-5.561 12.396-12.396 12.396-6.835 0-12.396-5.561-12.396-12.396 0-6.835 5.561-12.396 12.396-12.396 6.835 0 12.396 5.561 12.396 12.396z"/>
        <path d="M55.678 180.292c0 15.75 12.814 28.564 28.564 28.564s28.564-12.814 28.564-28.564-12.814-28.564-28.564-28.564c-15.75-.001-28.564 12.813-28.564 28.564zm40.96 0c0 6.835-5.561 12.396-12.396 12.396-6.835 0-12.396-5.561-12.396-12.396 0-6.835 5.561-12.396 12.396-12.396 6.835 0 12.396 5.561 12.396 12.396z"/>
        <path d="M66.308 292.271h124.859c4.466 0 8.084-3.618 8.084-8.084s-3.618-8.084-8.084-8.084H66.308a8.083 8.083 0 0 0-8.084 8.084 8.084 8.084 0 0 0 8.084 8.084z"/>
        <path d="M66.308 326.458h124.859a8.082 8.082 0 0 0 8.084-8.084 8.082 8.082 0 0 0-8.084-8.084H66.308a8.082 8.082 0 0 0-8.084 8.084 8.083 8.083 0 0 0 8.084 8.084z"/>
        <path d="M66.308 360.645h124.859a8.082 8.082 0 0 0 8.084-8.084 8.083 8.083 0 0 0-8.084-8.084H66.308a8.084 8.084 0 0 0-8.084 8.084 8.083 8.083 0 0 0 8.084 8.084z"/>
        <path d="M66.308 394.832h124.859a8.082 8.082 0 0 0 8.084-8.084 8.083 8.083 0 0 0-8.084-8.084H66.308a8.084 8.084 0 0 0-8.084 8.084 8.082 8.082 0 0 0 8.084 8.084z"/>
        <path d="M66.308 429.02h124.859c4.466 0 8.084-3.619 8.084-8.084s-3.618-8.084-8.084-8.084H66.308c-4.466 0-8.084 3.618-8.084 8.084s3.618 8.084 8.084 8.084z"/>
        <path d="M244.682 377.74h29.103c4.466 0 8.084-3.619 8.084-8.084s-3.619-8.084-8.084-8.084h-29.103a8.082 8.082 0 0 0-8.084 8.084 8.084 8.084 0 0 0 8.084 8.084z"/>
        <path d="M273.785 327.384h-29.103a8.082 8.082 0 0 0-8.084 8.084 8.082 8.082 0 0 0 8.084 8.084h29.103a8.082 8.082 0 0 0 8.084-8.084 8.083 8.083 0 0 0-8.084-8.084z"/>
        <path d="M273.785 293.197h-29.103c-4.466 0-8.084 3.618-8.084 8.084s3.618 8.084 8.084 8.084h29.103a8.082 8.082 0 0 0 8.084-8.084 8.083 8.083 0 0 0-8.084-8.084z"/>
    </g>
</svg>
