<?xml version="1.0" encoding="UTF-8"?>
<svg data-bbox="16.001 56 479.999 400" width="512" viewBox="0 0 512 512" height="512" xmlns="http://www.w3.org/2000/svg" data-type="shape">
    <g>
        <path d="m362.22 112 13.45-45.74A7.992 7.992 0 0 0 368 56H56a8.001 8.001 0 0 0-7.76 6.06l-32 128a8.01 8.01 0 0 0 3.32 8.6l43.48 28.98-46.86 218.68A7.999 7.999 0 0 0 24 456h216a24.002 24.002 0 0 0 1.61-47.95L278.66 208H328a7.995 7.995 0 0 0 7.67-5.74L357.51 128H464v-16zm-68.69-40-19.64 72h-71.42l19.64-72zm-164 368H33.9l44.57-208H128v-16H74.43l-24-16H120v-16H34.25l28-112h95.5l-29.51 118.06a8.01 8.01 0 0 0 3.32 8.6l43.48 28.98zm94.6-25.46A8.002 8.002 0 0 0 232 424h8a8 8 0 0 1 0 16h-38.31l44.91-232h15.78zM240 192a7.993 7.993 0 0 0-7.85 6.48L185.4 440h-39.51l45.93-214.32a8.004 8.004 0 0 0-3.38-8.34l-43.31-28.87L174.25 72h31.28l-21.25 77.9A7.994 7.994 0 0 0 192 160h88a7.994 7.994 0 0 0 7.72-5.9L310.11 72h15.2l-35.29 120zm82.01 0h-15.32l35.29-120h15.33z"/>
        <path d="M117.261 176H54.74a8 8 0 0 1-7.761-9.94l20-80a8 8 0 0 1 7.76-6.06h62.523a8 8 0 0 1 7.761 9.94l-20 80a8 8 0 0 1-7.76 6.06zm-52.276-16h46.03l16-64h-46.03z"/>
        <path d="M88 104h24v16H88z"/>
        <path d="M80 136h24v16H80z"/>
        <path d="M480 112h16v16h-16z"/>
    </g>
</svg>
