<?xml version="1.0" encoding="UTF-8"?>
<svg data-bbox="0.498 0 502.165 512" width="511pt" viewBox="-5 0 511 511.999" height="511pt" xmlns="http://www.w3.org/2000/svg" data-type="shape">
    <g>
        <path d="M337.754 264.84a7.5 7.5 0 1 0-15 0c0 4.285-3.488 7.773-7.774 7.773-4.285 0-7.773-3.488-7.773-7.773a7.5 7.5 0 1 0-15 0c0 12.558 10.215 22.773 22.773 22.773 12.56 0 22.774-10.218 22.774-22.773zm0 0"/>
        <path d="M407.277 264.84a7.5 7.5 0 0 0-7.5-7.5 7.497 7.497 0 0 0-7.5 7.5c0 4.285-3.488 7.773-7.773 7.773-4.29 0-7.774-3.488-7.774-7.773a7.5 7.5 0 0 0-7.5-7.5 7.497 7.497 0 0 0-7.5 7.5c0 12.558 10.215 22.773 22.774 22.773 12.555 0 22.773-10.218 22.773-22.773zm0 0"/>
        <path d="m468.477 437.957-13.489-5.746c-3.812-1.629-8.215.148-9.84 3.957a7.496 7.496 0 0 0 3.961 9.84l13.489 5.75a29.968 29.968 0 0 1 18.246 27.605V497h-262.23v-17.637a29.968 29.968 0 0 1 18.245-27.605l67.528-28.774a25.28 25.28 0 0 0 15.39-23.285v-3.453c9.715 3.54 19.836 5.332 29.965 5.332 10.117 0 20.23-1.789 29.938-5.324v3.445a25.274 25.274 0 0 0 15.39 23.285l21.918 9.34c3.809 1.625 8.215-.152 9.84-3.96a7.498 7.498 0 0 0-3.96-9.84l-21.919-9.34a10.296 10.296 0 0 1-6.27-9.485v-9.969c27.962-13.964 49.712-35.203 64.77-63.289 9.133-17.039 15.653-36.254 19.488-57.332 2.618-1.3 4.653-3.047 5.61-3.949 21.371-19.3 18.129-79.703 17.683-86.605-2.718-36.965-14.59-56.285-27.16-76.743a798.313 798.313 0 0 1-4.16-6.816 2.26 2.26 0 0 1-.254-1.742l1.547-5.781a17.31 17.31 0 0 0-2-13.536c-13.023-21.054-29.617-38.992-49.312-53.304-26.836-19.504-61.278-25.645-92.133-16.43-50.93 15.207-57.067 58.05-57.586 62.742a55.93 55.93 0 0 0-.606 14.36c-9.406 2.828-17.949 6.824-25.504 11.988-13.875 9.488-17.628 17.566-18.183 32.93 0 .05-.008.101-.008.156 0 .047-.004.148-.004.277a137.515 137.515 0 0 0-.062 4.664c-6.63-1.617-12.973.942-17.602 7.176-3.808 5.129-10.45 18.617-12.133 51.32-.71 13.832.282 27.211 2.95 39.774 2.402 11.328 7.27 21.793 15.308 32.933a13.006 13.006 0 0 0 4.809 4.07c1.945 11.376 4.656 22.294 8.152 32.61 1.328 3.922 5.59 6.027 9.508 4.695a7.5 7.5 0 0 0 4.7-9.511c-3.243-9.563-5.755-19.715-7.563-30.305a13.259 13.259 0 0 0 3.367-5.879c6.328-23.371 13.015-41.168 26.789-57.668 11.976-14.348 27.883-25.863 46-33.3l.676-.278c6.605-2.707 15.199-6.242 23.097-11.129 15.649 8.64 28.367 13.453 29.828 13.996 25.98 9.672 61.418 27.613 82.696 58.137 12.62 18.11 14.316 32.328 14.328 32.43.031.3.078.601.144.898.5 2.234 1.336 3.93 2.305 5.223-3.559 19.5-9.55 37.215-17.934 52.847-15.511 28.93-38.918 49.801-69.57 62.024-17.355 6.926-36.473 6.922-53.832 0-28.617-11.41-50.957-30.39-66.402-56.41a7.5 7.5 0 1 0-12.899 7.656c14.852 25.02 35.422 44.16 61.254 57.074v9.996a10.3 10.3 0 0 1-6.27 9.488l-67.53 28.774a44.939 44.939 0 0 0-27.364 41.402V504.5c0 4.14 3.36 7.5 7.5 7.5h277.23c4.141 0 7.5-3.36 7.5-7.5v-25.137a44.952 44.952 0 0 0-27.37-41.406zM306.07 153.074l-.68.281c-20.367 8.36-38.285 21.352-51.82 37.567-16.007 19.176-23.332 40.336-28.601 59.18-5.336-8.067-8.555-15.497-10.281-23.63-2.395-11.285-3.282-23.359-2.637-35.886 1.031-20.082 4.64-37.02 9.191-43.149.946-1.273 1.43-1.57 1.82-1.57.157 0 .301.051.454.102 1.27.433 2.543.68 3.804.777.48 9.11 1.438 19.535 3.352 27.41a7.502 7.502 0 0 0 7.281 5.73c.586 0 1.18-.066 1.774-.214a7.497 7.497 0 0 0 5.52-9.055c-3.724-15.336-3.384-43.75-3.38-44.039 0-.043-.004-.09-.004-.133.387-11.222 2.77-14.691 11.664-20.773 6.008-4.106 12.82-7.34 20.352-9.707 7.766 21.32 27.2 38.508 46.129 50.926-5.04 2.535-10.063 4.597-13.938 6.183zm63.844 2.688c-.238-.09-24.078-9.024-46.476-24.727-28.532-20-41.13-40.781-37.446-61.765.031-.184.059-.403.078-.586.13-1.305 3.164-27.887 31.09-43.465 10.067 15.133 27.367 23.597 44.418 30.96 18.113 7.817 33.7 15.403 40.965 29.071a7.492 7.492 0 0 0 10.14 3.105 7.503 7.503 0 0 0 3.106-10.144c-10.328-19.426-32.254-28.895-48.266-35.805-14.5-6.258-28.132-12.832-36.242-23.261.59-.192 1.16-.391 1.766-.57 8.055-2.407 16.398-3.587 24.762-3.587 19.062 0 38.222 6.117 54.261 17.778 18.114 13.164 33.38 29.671 45.375 49.062.328.527.426 1.172.266 1.77l-1.547 5.78a17.356 17.356 0 0 0 1.898 13.36 892.36 892.36 0 0 0 4.227 6.926c12.09 19.676 22.531 36.668 24.977 69.922 1.43 22.336-.57 61.164-11.723 73.394-4.113-17.054-22.926-66.425-105.629-97.218zm0 0"/>
        <path d="M223.688 370.441a14.762 14.762 0 0 0-.786-9.07l9.348-5.844c7.145-4.468 9.32-13.918 4.852-21.062l-3.457-5.528 25.726-17.925a7.501 7.501 0 0 0 1.867-10.442c-2.367-3.398-7.043-4.23-10.441-1.867l-25.117 17.5-3.063-4.898a15.194 15.194 0 0 0-9.527-6.79 15.18 15.18 0 0 0-11.535 1.938l-9.348 5.844a14.757 14.757 0 0 0-7.812-4.676 14.758 14.758 0 0 0-11.215 1.883l-31.461 19.68s-.004 0-.004.003h-.004l-31.453 19.676h-.004L57.309 381.98l-5.489-8.777a7.497 7.497 0 0 0-10.336-2.379 7.497 7.497 0 0 0-2.379 10.336l9.465 15.133 6.575 10.512-15.586 9.75-1.247-1.993c-3.968-6.351-12.363-8.285-18.714-4.312l-12.715 7.953a13.483 13.483 0 0 0-6.031 8.465 13.487 13.487 0 0 0 1.718 10.25l25.297 40.441a13.483 13.483 0 0 0 8.465 6.032 13.5 13.5 0 0 0 10.25-1.719l12.719-7.953c6.347-3.973 8.281-12.367 4.308-18.719l-1.246-1.988 15.586-9.75 16.043 25.648a7.492 7.492 0 0 0 10.336 2.38 7.497 7.497 0 0 0 2.379-10.337l-5.488-8.773 52.945-33.118 62.922-39.359a14.758 14.758 0 0 0 6.601-9.262zm-183.86 97.762L16.04 430.168l10.309-6.45 4.472 7.15 14.848 23.737 4.469 7.149zm14.582-27.91-6.894-11.023 15.582-9.747 6.894 11.02zm38.852-.832L71.84 405.207l-6.574-10.512 18.75-11.726 8.168 13.054a7.499 7.499 0 0 0 10.336 2.38 7.501 7.501 0 0 0 2.382-10.337l-8.168-13.054 15.118-9.453 28 44.761zm59.304-37.094-27.996-44.765 18.739-11.723 8.168 13.059a7.492 7.492 0 0 0 10.335 2.378 7.497 7.497 0 0 0 2.38-10.336l-8.165-13.054 24.985-15.63 3.613 5.77 21.758 34.79c0 .003.004.003.004.007l2.625 4.2zm47.774-77.46 9.168-5.739a.266.266 0 0 1 .21-.035.254.254 0 0 1 .177.129l14.488 23.16a.25.25 0 0 1 .035.21.242.242 0 0 1-.125.177l-9.168 5.734zm0 0"/>
    </g>
</svg>
