<?xml version="1.0" encoding="UTF-8"?>
<svg data-bbox="0.082 0 480 480.164" width="512" viewBox="0 0 480.164 480.164" height="512" xmlns="http://www.w3.org/2000/svg" data-type="shape">
    <g>
        <path d="m199.223 279.891-2.11.843 5.938 14.86 2.109-.848c21.531-8.609 48.313-8.613 69.844 0l2.109.844 5.938-14.86-2.11-.84c-25.265-10.113-56.453-10.109-81.718.001z"/>
        <path d="M232.082 160.164h16v88h-16z"/>
        <path d="M464.082.164v146.809c0 2.578-.414 5.139-1.227 7.586l-38.046 114.132-59.36 92.911a12.226 12.226 0 0 1-8.2 5.5c-7.141 1.114-13.834-3.772-14.948-10.913a13.088 13.088 0 0 1 1.304-8.025c13.915-25.266 39.5-72.168 39.5-72.168a8.09 8.09 0 0 0 .7-1.727l6.471-23.722 25.435-79.957-15.25-4.852-25.492 80.137.058.018c-.035.111-.121.189-.152.3-2.04 7.488-9.763 11.904-17.251 9.865a14.058 14.058 0 0 1-10.093-16.313l12.4-62.008a8.22 8.22 0 0 0 .151-1.573V152.73a127.743 127.743 0 0 1 37.656-90.91 8 8 0 0 0 2.344-5.656v-56h-16v52.738a145.539 145.539 0 0 0-15.086 18.844C324.813.545 231.277-21.358 160.076 22.825a151.735 151.735 0 0 0-48.915 48.911 145.545 145.545 0 0 0-15.079-18.834V.164h-16v56a8 8 0 0 0 2.344 5.656 127.744 127.744 0 0 1 37.656 90.914v23.43c.001.527.054 1.053.156 1.57l12.4 62.008a14.06 14.06 0 0 1-8.563 15.809c-7.209 2.882-15.389-.625-18.271-7.834a14.084 14.084 0 0 1-.51-1.522c-.031-.113-.117-.191-.152-.3l.058-.018-25.493-80.139-15.25 4.852 25.435 79.957 6.471 23.722a8.09 8.09 0 0 0 .7 1.727s25.585 46.9 39.5 72.168c3.085 5.594 1.554 12.477-4.032 16.672a12.363 12.363 0 0 1-9.609 2.269 12.209 12.209 0 0 1-8.2-5.5l-59.36-92.911-38.046-114.13a23.917 23.917 0 0 1-1.234-7.591V.164h-16v146.809a39.836 39.836 0 0 0 2.055 12.648l38.359 115.074c.207.625.49 1.223.844 1.778l59.89 93.746a28.45 28.45 0 0 0 18.836 12.629c1.642.299 3.308.449 4.977.449a29.066 29.066 0 0 0 17.484-5.969c.318-.238.563-.532.869-.781.576.653 1.108 1.361 1.694 2a126.565 126.565 0 0 0 14.992 13.983v30.353a148.28 148.28 0 0 1-7.594 46.761 8 8 0 0 0 7.594 10.52h160a8 8 0 0 0 7.594-10.52 148.28 148.28 0 0 1-7.594-46.761v-30.347a126.251 126.251 0 0 0 14.938-13.927c.62-.677 1.167-1.4 1.772-2.091.431.359.788.769 1.243 1.111 12.523 9.396 30.292 6.861 39.688-5.662.426-.567.83-1.15 1.212-1.748l59.89-93.746a7.961 7.961 0 0 0 .844-1.778l38.367-115.078a39.98 39.98 0 0 0 2.046-12.644V.164zM357.834 91.38c-2.072-2.548-4.232-4.92-6.408-7.251l3.965-3.965a138.343 138.343 0 0 1 4.23 7.311c-.648 1.278-1.178 2.609-1.787 3.905zm-11.771-24.516-6.095 6.1a148.602 148.602 0 0 0-19.1-14.274l8.84-8.839a135.144 135.144 0 0 1 16.355 17.013zm-172.146-16.18-10.678-10.677c7.83-5.411 16.21-9.98 25-13.63l7.8 15.59a145.389 145.389 0 0 0-22.122 8.717zm38.1-12.55-8.456-16.9a135.884 135.884 0 0 1 28.521-4.68v19.14a148.594 148.594 0 0 0-20.067 2.44zm36.065-21.693c9.673.548 19.26 2.124 28.6 4.7l-8.524 17a149.543 149.543 0 0 0-20.076-2.446zm43.852 9.966a134.72 134.72 0 0 1 25.061 13.53l-10.75 10.748a145.512 145.512 0 0 0-22.113-8.721zM150.561 49.955l8.734 8.732a146.959 146.959 0 0 0-19.1 14.275l-6.011-6.01a135.036 135.036 0 0 1 9.7-10.96c2.143-2.133 4.425-4.065 6.677-6.037zm-25.8 30.2 3.978 3.977c-2.182 2.342-4.348 4.715-6.408 7.248-.606-1.29-1.134-2.615-1.779-3.888 1.342-2.484 2.718-4.946 4.208-7.335zm184.621 384.009h-138.6a163.87 163.87 0 0 0 5.3-41.281v-19.185a129.909 129.909 0 0 0 12.117 6.177 127.786 127.786 0 0 0 103.781 0 130.171 130.171 0 0 0 12.1-6.17v19.182a163.847 163.847 0 0 0 5.302 41.277zm13.789-96.3a110.985 110.985 0 0 1-37.689 27.386 112.292 112.292 0 0 1-90.781 0 111.05 111.05 0 0 1-37.758-27.457c-1.476-1.607-2.812-3.293-4.193-4.95a28.372 28.372 0 0 0-2.174-22.4c-11.554-20.988-31.18-56.929-37.469-68.449 16.288 3.178 32.069-7.449 35.248-23.738a30.04 30.04 0 0 0-.029-11.656l-5.418-27.1c7.073.692 14.192 1.168 21.34 1.168a216.971 216.971 0 0 0 37.211-3.184l-2.75-15.758a202.841 202.841 0 0 1-59.1 1.3l-3.527-17.655v-13.8c18.06-9.643 39.874-11.981 62.031-6.374l3.938-15.508c-23.254-5.9-46.332-4.239-66.38 4.35a144.321 144.321 0 0 0-6.442-35.148 134.02 134.02 0 0 1 13.259-16.17c.43-.481.914-.961 1.406-1.461.415-.41.813-.825 1.618-1.532a132.836 132.836 0 0 1 30.609-22.289 130.086 130.086 0 0 1 33.328-12.453 134.647 134.647 0 0 1 61.36.02 129.957 129.957 0 0 1 33.281 12.461 133.08 133.08 0 0 1 30.692 22.388c1.07 1 2.055 1.989 3.164 3.172a130.84 130.84 0 0 1 12.986 15.863 144.25 144.25 0 0 0-6.442 35.151c-20.044-8.586-43.113-10.241-66.38-4.35l3.938 15.508c22.157-5.614 43.977-3.277 62.031 6.372v13.8l-3.681 18.411c-17 1.482-34.119.79-50.944-2.059l-2.75 15.765a215.608 215.608 0 0 0 36.773 3.129c4.564 0 9.116-.176 13.647-.46l-5.287 26.445c-3.255 16.277 7.301 32.11 23.578 35.365 3.841.768 7.796.778 11.641.029-6.289 11.52-25.907 47.461-37.469 68.449a28.17 28.17 0 0 0-2.133 22.353c-1.403 1.689-2.755 3.393-4.286 5.066z"/>
    </g>
</svg>
