<?xml version="1.0" encoding="UTF-8"?>
<svg data-bbox="0.003 0.002 480.002 480.001" width="512" viewBox="0 0 480.005 480.005" height="512" xmlns="http://www.w3.org/2000/svg" data-type="shape">
    <g>
        <path d="M80.887 122.55 50.34 208.093a39.902 39.902 0 0 0-2.336 13.453v121.008L.512 469.194a8.001 8.001 0 0 0 7.492 10.809h120a7.999 7.999 0 0 0 7.758-6.059l18.191-72.833v.052c3.758 44.207 41.485 78.84 85.891 78.84 44.57 0 82.3-34.824 85.89-79.289l.048-.609 18.46 73.839a8 8 0 0 0 7.762 6.059h120a8 8 0 0 0 7.492-10.809l-47.492-126.64V221.546c0-4.585-.79-9.136-2.336-13.453l-30.547-85.539a40.072 40.072 0 0 0-37.672-26.551h-11.362l1.917-24v-40c.008-17.665-14.305-31.992-31.97-32a31.986 31.986 0 0 0-22.905 9.645C287.014-2.02 269.357-3.279 257.69 6.835a27.82 27.82 0 0 0-1.687 1.589c-10.806-11.052-28.525-11.251-39.577-.445a27.998 27.998 0 0 0-7.071 11.423c-13.584-7.379-30.578-2.35-37.958 11.234a27.962 27.962 0 0 0-2.042 4.766c-13.584-7.379-30.578-2.349-37.957 11.235a28 28 0 0 0-3.395 13.365l.031 36h-9.476a40.075 40.075 0 0 0-37.671 26.548zm267.922-10.547h12.64a24.065 24.065 0 0 1 22.61 15.93l30.545 85.543a23.923 23.923 0 0 1 1.4 8.07v122.457c0 .959.172 1.911.508 2.809l43.945 117.191H358.246l-30.695-122.664-46.594-132a16.697 16.697 0 0 1-.953-5.57v-3.043c-.001-9.236 7.486-16.724 16.722-16.724a16.724 16.724 0 0 1 14.958 9.243l49.164 98.336 14.312-7.156-34.6-69.2zm-204.805-52c0-6.627 5.373-12 12-12s12 5.373 12 12v20h16v-36c0-6.627 5.373-12 12-12s12 5.373 12 12v28h16v-44c0-6.627 5.373-12 12-12s12 5.373 12 12v36h16v-36c0-6.627 5.373-12 12-12s12 5.373 12 12v36h16v-32c0-8.837 7.163-16 16-16s16 7.163 16 16l.023 39.363-9.3 116.179-.728-1.456c-8.081-16.166-27.736-22.72-43.902-14.64a32.724 32.724 0 0 0-18.093 29.277v3.043a32.761 32.761 0 0 0 1.859 10.89l46.383 131.285 1.363 5.454-3.824 48.039c-3.101 36.372-33.433 64.375-69.937 64.566-36.164 0-66.891-28.2-69.953-64.2l-3.974-46.612 1.63-6.525 46.594-132.016a32.68 32.68 0 0 0 1.859-10.881v-3.043c0-18.073-14.651-32.724-32.724-32.724a32.724 32.724 0 0 0-29.268 18.087l-1.985 3.969-8.023-94.055zm-5.689 157.483-33.467 66.939 14.312 7.156 49.164-98.336c4.131-8.261 14.176-11.608 22.437-7.477a16.722 16.722 0 0 1 9.243 14.958v3.043a16.62 16.62 0 0 1-.953 5.562l-46.805 132.731-30.492 121.941H19.551l43.945-117.191c.336-.898.508-1.85.508-2.809V221.546c-.001-2.75.473-5.48 1.4-8.07l30.547-85.547a24.069 24.069 0 0 1 22.608-15.926h10.78z"/>
        <path d="m223.723 176.855.851 2.125 14.86-5.954-.852-2.121c-10.209-25.533-37.185-40.144-64.148-34.746l3.14 15.688c19.4-3.879 38.805 6.637 46.149 25.008z"/>
        <path d="M232.004 207.214a71.824 71.824 0 0 0 27.2 71.189l9.594-12.8a55.744 55.744 0 0 1-21.109-55.247l.156-.777-15.688-3.156z"/>
    </g>
</svg>
