<?xml version="1.0" encoding="UTF-8"?>
<svg data-bbox="0 0 512.001 432.191" width="512pt" viewBox="0 -40 512.001 512" height="512pt" xmlns="http://www.w3.org/2000/svg" data-type="shape">
    <g>
        <path d="M503.277 260.668C448.918 179.906 368.574 133.59 282.844 133.59h-.004c-85.73 0-166.086 46.324-220.445 127.078-5.547 8.242-8.602 18.445-8.72 28.977-5.62 9.117-5.171 20.625 1.368 29.351 25.61 34.168 57.516 61.438 94.832 81.05 35.7 18.77 74.39 29.575 114.996 32.114 4.133.262 7.695-2.883 7.953-7.02.262-4.132-2.883-7.695-7.02-7.952-78.952-4.938-151.398-44.008-198.761-107.192-2.988-3.988-2.996-9.351-.016-13.348.051-.062.11-.117.16-.183 27.22-36.121 62.208-64.16 101.813-82.559-11.457 18.309-17.738 39.66-17.738 61.551 0 63.914 52 115.91 115.91 115.91 56.348 0 104.351-40.215 114.137-95.625.722-4.078-2.004-7.969-6.082-8.691-4.075-.723-7.97 2.004-8.692 6.082-8.515 48.23-50.305 83.234-99.363 83.234-55.64 0-100.906-45.265-100.906-100.91 0-27.383 11.285-53.809 31.02-72.773 40.48-13.457 84.179-17.153 126.577-10.707 23.313 15.859 38.989 40.757 43.11 68.558a7.497 7.497 0 0 0 8.52 6.32c4.097-.605 6.925-4.421 6.32-8.52-3.34-22.534-13.29-43.401-28.258-60.14 53.086 14.313 101.234 44.801 137.707 89.094 7.66 9.3 7.597 22.813 0 32.04-48.098 58.413-116.067 93.171-191.387 97.874a7.498 7.498 0 0 0-7.02 7.953 7.504 7.504 0 0 0 7.954 7.02c38.398-2.399 75.18-12.246 109.324-29.27 35.73-17.812 66.926-42.726 92.71-74.043 7.419-9.011 10.313-20.5 8.704-31.453 1.672-13.07-1.309-26.402-8.27-36.742zM282.844 148.59c74.02 0 143.953 36.976 194.789 102.226-47.906-45.007-109.496-71.918-175.442-76.296-76.437-5.094-154.257 20.023-213.773 75.824 50.8-64.957 120.578-101.754 194.426-101.754zm0 0"/>
        <path d="M70.383 49.406c-1.48.828-2.957 1.664-4.43 2.512a7.5 7.5 0 0 0 7.477 13.004 359.57 359.57 0 0 1 4.27-2.418 7.502 7.502 0 0 0-7.316-13.098zm0 0"/>
        <path d="M446.426 69.492c1.398.848 2.797 1.703 4.187 2.567a7.474 7.474 0 0 0 3.953 1.129 7.497 7.497 0 0 0 6.38-3.543 7.504 7.504 0 0 0-2.415-10.329 392.167 392.167 0 0 0-4.34-2.66 7.499 7.499 0 0 0-10.3 2.54 7.497 7.497 0 0 0 2.535 10.296zm0 0"/>
        <path d="M380.66 21.668c-3.898-1.387-8.187.652-9.578 4.559a7.499 7.499 0 0 0 4.559 9.578c1.539.547 3.082 1.105 4.617 1.675a7.5 7.5 0 0 0 9.637-4.433 7.495 7.495 0 0 0-4.43-9.637 352.54 352.54 0 0 0-4.805-1.742zm0 0"/>
        <path d="M479.043 91.387a452.62 452.62 0 0 1 3.934 2.949 7.466 7.466 0 0 0 4.527 1.523 7.498 7.498 0 0 0 4.54-13.473 425.051 425.051 0 0 0-4.071-3.054c-3.325-2.46-8.028-1.766-10.493 1.566a7.498 7.498 0 0 0 1.563 10.489zm0 0"/>
        <path d="M40.355 86.102c1.34-.95 2.68-1.887 4.028-2.817a7.5 7.5 0 0 0 1.898-10.437 7.5 7.5 0 0 0-10.433-1.903 416.333 416.333 0 0 0-4.168 2.918 7.499 7.499 0 0 0-1.782 10.457 7.502 7.502 0 0 0 10.457 1.782zm0 0"/>
        <path d="M106.879 31.344a440.79 440.79 0 0 0-4.649 2.047 7.504 7.504 0 0 0-3.773 9.914 7.507 7.507 0 0 0 9.914 3.777 346 346 0 0 1 4.473-1.973 7.506 7.506 0 0 0 3.902-9.867c-1.648-3.8-6.07-5.547-9.867-3.898zm0 0"/>
        <path d="M184.57 7.012c-1.668.328-3.328.672-4.992 1.023a7.502 7.502 0 1 0 3.121 14.676c1.594-.34 3.192-.668 4.79-.984a7.502 7.502 0 0 0 5.898-8.817 7.5 7.5 0 0 0-8.817-5.898zm0 0"/>
        <path d="M224.969 1.293c-1.692.148-3.387.305-5.078.469a7.5 7.5 0 0 0-6.723 8.203 7.502 7.502 0 0 0 8.203 6.726c1.621-.16 3.246-.312 4.871-.449 4.13-.355 7.188-3.984 6.836-8.113s-4-7.195-8.11-6.836zm0 0"/>
        <path d="M411.871 50.848c1.477.703 2.953 1.418 4.426 2.144a7.5 7.5 0 1 0 6.625-13.457c-1.531-.754-3.063-1.5-4.602-2.23a7.5 7.5 0 1 0-6.449 13.543zm0 0"/>
        <path d="M260.66 0c-4.16-.031-7.543 3.266-7.594 7.406A7.497 7.497 0 0 0 260.473 15c1.629.023 3.261.055 4.894.098.067 0 .133.004.203.004a7.503 7.503 0 0 0 7.493-7.301 7.499 7.499 0 0 0-7.297-7.7A370.946 370.946 0 0 0 260.66 0zm0 0"/>
        <path d="M341.543 10.074a7.497 7.497 0 0 0-9.035 5.559 7.502 7.502 0 0 0 5.555 9.035c1.59.379 3.175.77 4.761 1.168a7.5 7.5 0 1 0 3.68-14.543 382.182 382.182 0 0 0-4.961-1.219zm0 0"/>
        <path d="M301.383 2.793a7.5 7.5 0 1 0-1.855 14.887c1.617.203 3.238.418 4.855.64 4.094.57 7.894-2.285 8.46-6.398a7.5 7.5 0 0 0-6.394-8.461 374.603 374.603 0 0 0-5.066-.668zm0 0"/>
        <path d="M145.063 17.11a373.036 373.036 0 0 0-4.848 1.554 7.501 7.501 0 0 0-4.781 9.469 7.502 7.502 0 0 0 9.468 4.785 322.248 322.248 0 0 1 4.653-1.496c3.949-1.238 6.148-5.45 4.91-9.402a7.492 7.492 0 0 0-9.403-4.91zm0 0"/>
        <path d="m12.313 107.75.78-.652a7.506 7.506 0 0 0 .97-10.567 7.503 7.503 0 0 0-10.567-.965l-.805.672a7.497 7.497 0 0 0-.945 10.563c2.656 3.183 7.39 3.601 10.566.949zm0 0"/>
        <path d="M287.336 215.004c-41.945-13.793-84.863 17.715-84.863 61.465 0 35.676 29.023 64.699 64.699 64.699 45.328 0 76.691-45.66 60.39-87.91 11.45-25.375-15.714-50.836-40.226-38.254zm27.82 26.195c0 7.906-6.437 14.43-14.433 14.43-7.953 0-14.43-6.473-14.43-14.43 0-7.933 6.508-14.43 14.43-14.43 7.96 0 14.433 6.473 14.433 14.43zm-47.984 84.969c-27.402 0-49.695-22.297-49.695-49.7 0-30.382 27.175-53.769 57.289-49.116a29.54 29.54 0 0 0-3.473 13.847c0 16.227 13.203 29.434 29.434 29.434 5.199 0 10.566-1.426 15.136-4.172 6.34 30.863-17.367 59.707-48.691 59.707zm0 0"/>
        <path d="M41.574 172.617c9.219 11.938 26.504 14.242 38.528 5.164 44.91-33.898 206.257-136.554 397.058-34.32 5.64 3.023 12.29 1.348 15.809-3.984 3.511-5.329 2.437-12.09-2.555-16.086-115.828-92.614-277.016-110.786-453.473-7.977-14.449 8.422-18.214 27.606-8.023 40.809zm2.922-44.238C178.371 50.37 324.371 30.535 454.04 115.527c-75.3-33.039-153.082-40.234-231.664-21.363-71.97 17.286-125.692 52.306-151.31 71.646-5.504 4.152-13.406 3.093-17.617-2.36l-12.656-16.394c-4.777-6.188-2.781-14.899 3.703-18.676zm0 0"/>
    </g>
</svg>
