<?xml version="1.0" encoding="UTF-8"?>
<svg data-bbox="0 0.5 511.996 493.546" width="511pt" viewBox="0 -9 511.997 511" height="511pt" xmlns="http://www.w3.org/2000/svg" data-type="shape">
    <g>
        <path d="M243.95 272.55h12.21c4.145 0 7.5-3.355 7.5-7.5s-3.355-7.5-7.5-7.5h-10.398v-18.19a7.5 7.5 0 0 0-7.5-7.5 7.497 7.497 0 0 0-7.5 7.5v20.066c0 7.238 5.918 13.125 13.187 13.125zm0 0"/>
        <path d="M217.18 216.254a7.504 7.504 0 0 0-10.606-.031c-9.883 9.82-25.96 9.82-35.84 0a7.504 7.504 0 0 0-10.605.03 7.502 7.502 0 0 0 .031 10.61c7.856 7.809 18.172 11.711 28.492 11.711s20.641-3.906 28.496-11.71a7.502 7.502 0 0 0 .032-10.61zm0 0"/>
        <path d="M305.77 238.574c10.316 0 20.64-3.902 28.496-11.71a7.5 7.5 0 0 0-10.575-10.641c-9.882 9.824-25.96 9.824-35.843 0a7.5 7.5 0 0 0-10.574 10.64c7.855 7.809 18.171 11.711 28.496 11.711zm0 0"/>
        <path d="M207.48 289.215a7.497 7.497 0 0 0 .032 10.605c10.879 10.813 25.175 16.215 39.504 16.215 14.43 0 28.882-5.476 39.898-16.422a7.506 7.506 0 0 0 .031-10.61c-2.918-2.937-7.668-2.948-10.605-.03-16.121 16.023-42.254 16.117-58.254.21a7.497 7.497 0 0 0-10.606.032zm0 0"/>
        <path d="M415.387 171.383c12.86 5.11 15.793 8.039 20.898 20.894 1.586 3.996 5.387 6.578 9.684 6.578s8.094-2.582 9.68-6.574c5.113-12.86 8.042-15.789 20.898-20.898 3.996-1.586 6.574-5.387 6.574-9.684s-2.578-8.097-6.57-9.683c-12.86-5.11-15.79-8.04-20.903-20.91a10.371 10.371 0 0 0-9.68-6.56 10.36 10.36 0 0 0-9.679 6.567c-5.11 12.864-8.043 15.793-20.898 20.903a10.368 10.368 0 0 0-6.575 9.683c0 4.301 2.582 8.098 6.57 9.684zm30.582-25.418c3.945 7.25 8.484 11.789 15.738 15.734-7.254 3.946-11.793 8.485-15.738 15.735-3.946-7.25-8.48-11.786-15.735-15.735 7.254-3.945 11.79-8.484 15.735-15.734zm0 0"/>
        <path d="M31.441 171.684c12.86 5.113 15.793 8.043 20.899 20.898a10.354 10.354 0 0 0 9.683 6.574 10.36 10.36 0 0 0 9.68-6.566c5.11-12.863 8.04-15.793 20.902-20.906 3.993-1.586 6.57-5.383 6.57-9.68s-2.577-8.098-6.57-9.68c-12.863-5.113-15.793-8.043-20.902-20.906a10.363 10.363 0 0 0-9.68-6.57c-4.3 0-8.101 2.582-9.68 6.57-5.109 12.863-8.042 15.793-20.906 20.906a10.365 10.365 0 0 0-6.566 9.68c0 4.293 2.578 8.094 6.57 9.68zm30.582-25.414c3.946 7.25 8.485 11.789 15.735 15.734-7.25 3.945-11.79 8.484-15.735 15.734-3.945-7.25-8.484-11.789-15.734-15.734 7.25-3.945 11.79-8.484 15.734-15.734zm0 0"/>
        <path d="M79.59 57.348C89.637 61.34 91.75 63.453 95.742 73.5a9.82 9.82 0 0 0 9.172 6.227 9.807 9.807 0 0 0 9.164-6.223c3.996-10.05 6.11-12.164 16.156-16.156a9.808 9.808 0 0 0 6.223-9.168 9.818 9.818 0 0 0-6.223-9.168c-10.047-3.996-12.16-6.11-16.152-16.153a9.82 9.82 0 0 0-9.168-6.226 9.808 9.808 0 0 0-9.168 6.222c-3.992 10.047-6.11 12.16-16.168 16.16a9.815 9.815 0 0 0-6.21 9.165 9.814 9.814 0 0 0 6.222 9.168zm25.32-19.082c2.633 4.242 5.676 7.285 9.914 9.914-4.238 2.629-7.281 5.672-9.914 9.91-2.629-4.238-5.668-7.281-9.91-9.91 4.242-2.633 7.281-5.672 9.91-9.914zm0 0"/>
        <path d="m508.18 435.64-4.89-4.859c-2.938-2.918-7.688-2.906-10.606.031a7.497 7.497 0 0 0 .03 10.606l3.427 3.406-33.594 33.395-33.73-33.528a7.503 7.503 0 0 0-7.254-1.918 40.49 40.49 0 0 1-10.625 1.422c-10.649 0-20.66-4.117-28.18-11.593l-71.934-71.508c-.578-.574-.883-1.305-.883-2.11s.305-1.535.883-2.109c1.18-1.172 3.196-1.172 4.367-.004l40.77 40.527a7.499 7.499 0 0 0 10.574-.003l6.11-6.079c1.418-1.406 2.21-3.32 2.21-5.316s-.792-3.91-2.21-5.32l-54.348-54.024a2.937 2.937 0 0 1-.887-2.113c0-.805.309-1.535.883-2.11 1.18-1.171 3.191-1.175 4.371.005l54.356 54.023c2.921 2.91 7.648 2.906 10.574 0l6.113-6.078a7.502 7.502 0 0 0 0-10.637l-54.352-54.027c-.578-.574-.882-1.305-.882-2.11s.304-1.535.882-2.109c1.18-1.176 3.188-1.172 4.372 0l54.351 54.027a7.499 7.499 0 0 0 10.574 0l6.114-6.078a7.5 7.5 0 0 0 .004-10.637l-40.766-40.519a2.92 2.92 0 0 1-.883-2.113c0-.805.309-1.535.883-2.106 1.18-1.176 3.191-1.176 4.375 0l52.27 51.961a7.497 7.497 0 0 0 12.785-5.32v-18.762c.003-3.148 2.601-5.715 5.796-5.715 3.192 0 5.793 2.563 5.793 5.715v47.055c0 1.39.383 2.75 1.114 3.933 5.695 9.254 7.297 20.594 4.394 31.114a7.5 7.5 0 0 0 1.946 7.312l5.234 5.203a7.497 7.497 0 0 0 10.605-.03c2.918-2.938 2.907-7.688-.03-10.606l-2.278-2.266c2.355-12.52.246-25.578-5.985-36.695v-45.02c0-11.422-9.328-20.715-20.796-20.715-11.461.004-20.79 9.293-20.793 20.715v.73l-23.93-23.788c.41-2.614.629-5.286.629-8.012 0-9.016-2.309-17.5-6.371-24.906a27.346 27.346 0 0 0 3.976-14.215v-24.528c0-10.71-6.176-20.02-15.191-24.644v-29.262c0-36.691-14.414-67.754-41.688-89.832-6.832-5.531-14.398-10.383-22.558-14.523C319.457 30.582 286.797.5 247.207.5c-39.594 0-72.25 30.082-76.098 68.473-8.16 4.14-15.726 8.992-22.554 14.523-27.274 22.078-41.692 53.14-41.692 89.832v29.262c-9.011 4.629-15.187 13.937-15.187 24.644v24.528c0 7.847 3.324 14.93 8.636 19.984l-2.628 39.863a12.388 12.388 0 0 0-6.586 3.426l-10.028 9.969a12.377 12.377 0 0 0-3.675 8.844c0 2.957 1.023 5.75 2.894 7.988L4.812 424.848A16.689 16.689 0 0 0 0 436.62c0 4.508 1.766 8.746 4.969 11.93a16.814 16.814 0 0 0 11.933 4.918 16.82 16.82 0 0 0 11.785-4.77l83.567-75.082a12.447 12.447 0 0 0 8.094 2.969 12.44 12.44 0 0 0 8.832-3.637l10.03-9.969a12.404 12.404 0 0 0 3.462-6.562l43.363-2.828c1.25-.082 2.45-.344 3.578-.75a105.899 105.899 0 0 0 20.23 6.992v13.934h-49.968c-44.855 0-81.348 36.297-81.348 80.91v26.644c0 7.016 5.711 12.727 12.73 12.727h311.9c7.023 0 12.734-5.711 12.734-12.727v-22.355a54.633 54.633 0 0 0 5.28-.723l32.231 32.035a12.897 12.897 0 0 0 9.145 3.77c3.453 0 6.7-1.34 9.144-3.77l36.485-36.27a13.03 13.03 0 0 0 3.82-9.183 13.033 13.033 0 0 0-3.816-9.183zm-223.602-75.804c3.578-.84 7.086-1.863 10.512-3.059a18.745 18.745 0 0 0-.149 2.207c0 4.817 1.887 9.344 5.309 12.75l2.047 2.032h-17.719zm104.375-76.406a17.981 17.981 0 0 0-12.762-5.258 17.982 17.982 0 0 0-12.761 5.262c-3.075 3.058-4.907 7.02-5.246 11.28l-3.883-3.855a17.966 17.966 0 0 0-12.758-5.261 17.999 17.999 0 0 0-12.762 5.261 17.856 17.856 0 0 0-5.304 12.75c0 1.09.097 2.168.285 3.223a18.274 18.274 0 0 0-4.98-.21 36.709 36.709 0 0 1-3.524-15.74c0-20.5 16.793-37.171 37.437-37.171 18.258 0 33.496 13.043 36.778 30.238zm-1.21-31.672c0 .113-.013.226-.013.34a52.474 52.474 0 0 0-21.863-11.723v-25.91h8.766c7.23 0 13.11 5.726 13.11 12.765zM247.21 15.496c28.809 0 53.05 19.79 59.68 46.402-18.11-6.535-38.368-9.984-59.68-9.984s-41.57 3.45-59.684 9.984c6.633-26.613 30.875-46.402 59.684-46.402zM106.68 227.23c0-7.039 5.882-12.765 13.11-12.765h8.765v39.781a82.8 82.8 0 0 0-18.157 2.488c-.796.2-1.558.477-2.28.809a12.379 12.379 0 0 1-1.438-5.785zM18.54 437.648a8.647 8.647 0 0 0-.274.262 1.9 1.9 0 0 1-1.364.559c-.363 0-.894-.098-1.359-.559-.45-.441-.543-.945-.543-1.289s.094-.848.543-1.293c.09-.086.176-.18.262-.273l75.101-82.594 10.66 10.594zm101.808-77.07-26.895-26.734 6.48-6.442 26.895 26.735zm63.312-21.867-47.926 3.125-.757-.754 26.867-15.875a7.494 7.494 0 0 0 2.64-10.27 7.498 7.498 0 0 0-10.27-2.644l-30.081 17.773 17.836-29.828a7.502 7.502 0 0 0-12.875-7.699l-16.012 26.781-.816-.816 3.136-47.547c5.024-1.156 10.082-1.742 15.059-1.742 15.293 0 29.262 5.52 39.34 15.535 13.492 13.41 18.625 33.496 13.86 53.96zm-3.285-64.598c-9.918-9.86-22.691-16.3-36.82-18.761v-69.555H173c4.145 0 7.5-3.356 7.5-7.5a7.5 7.5 0 0 0-7.5-7.5h-30.773c-7.54 0-13.672 6.117-13.672 13.637v15.03h-6.688v-26.14c0-32.008 12.492-59.039 36.13-78.176 22.491-18.207 54.175-28.238 89.214-28.238s66.723 10.031 89.215 28.238c23.633 19.137 36.125 46.168 36.125 78.176v26.14h-6.684v-15.03c0-7.52-6.133-13.637-13.672-13.637H320.02c-13.454 0-26.278-7.094-33.461-18.504-2.512-4.008-6.84-6.395-11.582-6.395-4.739 0-9.07 2.387-11.582 6.387-7.184 11.418-20.004 18.516-33.461 18.516H208a7.5 7.5 0 1 0 0 15h21.934c17.886 0 34.957-9.078 45.043-23.828 10.086 14.746 27.156 23.828 45.043 23.828h30.847v52.953c-28.07.969-50.61 23.973-50.61 52.129 0 8.344 1.993 16.23 5.513 23.234a17.81 17.81 0 0 0-3.356 10.426c0 3.937 1.281 7.672 3.613 10.77-13.464 7.847-29.136 12.359-45.863 12.359h-25.898c-12.645 0-24.688-2.582-35.63-7.227 5.29-25-1.413-49.586-18.261-66.332zm29.867 114.653c8.055 0 14.602-6.532 14.602-14.559V362.25c3.105.273 6.246.422 9.422.422h25.898c3.172 0 6.313-.145 9.414-.422v11.957c0 8.027 6.55 14.559 14.606 14.559h1.777l-38.75 59.328-38.75-59.328zm-116.715 90.28v-24.37c0-36.344 29.762-65.91 66.348-65.91h.809l58.964 90.28zm181.243 0 16.77-25.675a7.5 7.5 0 0 0-12.56-8.203l-17.117 26.21a17.483 17.483 0 0 1-11.675 7.669h-5.958a17.484 17.484 0 0 1-11.671-7.668l-53.961-82.613h11.945l50.387 77.148a7.506 7.506 0 0 0 12.558 0l50.387-77.148h11.945l-17.898 27.402a7.502 7.502 0 0 0 2.18 10.383c3.464 2.265 8.113 1.289 10.378-2.18l16.82-25.75 44.884 44.617c7.941 7.895 17.894 13.055 28.707 15.035v20.774zm0 0"/>
    </g>
</svg>
